Coordinates
version=1
nRows=11
nColumns=40
inDegrees=yes

Units are S.I. units (second, meters, Newtons, ...)
Angles are in degrees.

endheader
time	pelvis_tilt	pelvis_list	pelvis_rotation	pelvis_tx	pelvis_ty	pelvis_tz	hip_flexion_r	hip_adduction_r	hip_rotation_r	knee_angle_r	knee_angle_r_beta	ankle_angle_r	subtalar_angle_r	mtp_angle_r	hip_flexion_l	hip_adduction_l	hip_rotation_l	knee_angle_l	knee_angle_l_beta	ankle_angle_l	subtalar_angle_l	mtp_angle_l	lumbar_extension	lumbar_bending	lumbar_rotation	arm_flex_r	arm_add_r	arm_rot_r	elbow_flex_r	pro_sup_r	wrist_flex_r	wrist_dev_r	arm_flex_l	arm_add_l	arm_rot_l	elbow_flex_l	pro_sup_l	wrist_flex_l	wrist_dev_l
     17.43500000	     -4.48748313	     -3.53845307	      1.73131049	      0.85811595	      0.92017180	      0.44340587	      0.82828947	     -0.95774918	    -13.53364451	     27.60872584	     27.60872584	     17.49530876	     -2.04695851	     -6.22250341	     26.98381015	     -4.54135119	     -2.74878564	     26.37682967	     26.37682967	      7.16213557	    -16.04659555	      5.32092676	     -6.18418904	      4.80072817	      4.66572063	     28.39718358	    -16.92648653	     -9.03609957	     75.67357177	     45.02435367	      0.00000000	      0.00000000	     -5.14888528	     -7.81180515	      6.52130381	     26.05180447	     44.38593103	      0.00000000	      0.00000000
     17.44714286	     -4.55774911	     -3.50667084	      1.56596731	      0.85781272	      0.92114222	      0.44157931	      2.23050221	     -1.39094330	    -12.72373828	     30.43140796	     30.43140796	     13.62568882	     -5.73348013	    -13.93511645	     26.35767908	     -4.48238066	     -3.06227578	     26.09122551	     26.09122551	      7.42786497	    -15.89506341	      4.57967551	     -6.14671230	      4.72487374	      4.34177271	     27.04547892	    -16.70520941	     -8.05555471	     73.21844474	     45.09858298	      0.00000000	      0.00000000	     -3.80067612	     -7.92544730	      6.36236912	     25.63403847	     44.54701308	      0.00000000	      0.00000000
     17.45928571	     -4.62257657	     -3.41273160	      1.39179376	      0.85732567	      0.92199573	      0.43976993	      4.13590405	     -2.02668431	    -12.08784834	     34.39242059	     34.39242059	     11.91482653	     -8.04561283	    -14.74301921	     25.73624218	     -4.35071355	     -3.38106518	     25.81828010	     25.81828010	      7.80421040	    -15.70923194	      4.24036675	     -6.20942849	      4.58226325	      4.39217287	     25.11166111	    -16.65016244	     -7.73588325	     71.83767879	     45.13281037	      0.00000000	      0.00000000	     -2.61104817	     -8.21123083	      6.20573728	     26.42278801	     44.61485527	      0.00000000	      0.00000000
     17.47142857	     -4.60575868	     -3.17269378	      1.22342139	      0.85675820	      0.92278506	      0.43790814	      6.13403271	     -2.90478113	    -11.62881509	     38.61879038	     38.61879038	     10.14759626	     -9.84286410	    -15.07646840	     25.00146340	     -4.06624097	     -3.79354370	     25.51214137	     25.51214137	      8.20347671	    -15.46461271	      3.96744945	     -6.39573408	      4.30764933	      4.14027239	     23.32720706	    -16.28440449	     -7.37593013	     70.69284126	     45.15264418	      0.00000000	      0.00000000	     -1.37215922	     -8.53294322	      6.13010560	     27.00635582	     44.65385991	      0.00000000	      0.00000000
     17.48357143	     -4.66691722	     -3.13889148	      1.04402021	      0.85598268	      0.92328978	      0.43633716	      8.32105361	     -3.28990939	    -10.71708599	     42.69862227	     42.69862227	      7.46167760	    -13.00515276	    -16.12767983	     24.43444189	     -4.00501564	     -4.06999490	     25.27554907	     25.27554907	      8.30815658	    -15.39347656	      3.04735410	     -6.42482939	      4.25258091	      3.79585191	     22.03293935	    -15.86597016	     -6.68107550	     67.79695210	     45.23458845	      0.00000000	      0.00000000	     -0.45223494	     -8.94627743	      6.19626729	     28.23357613	     44.71038829	      0.00000000	      0.00000000
     17.49571429	     -4.68313719	     -2.91657588	      0.90426874	      0.85507614	      0.92366913	      0.43460572	     10.60436472	     -4.01360231	    -10.13363169	     46.97195102	     46.97195102	      5.35670335	    -14.84007524	    -15.53330147	     23.82996288	     -3.70514575	     -4.31386224	     25.06059181	     25.06059181	      8.64951551	    -15.26958488	      2.84061457	     -6.59106235	      4.00490860	      3.68567032	     20.10712566	    -15.62551938	     -6.32643842	     66.49270544	     45.25876498	      0.00000000	      0.00000000	      0.88961128	     -9.30414007	      6.11090659	     28.98514182	     44.75124032	      0.00000000	      0.00000000
     17.50785714	     -4.66547073	     -2.83575262	      0.76023046	      0.85411810	      0.92400548	      0.43313131	     12.96307012	     -4.38106227	     -9.36990754	     51.24646198	     51.24646198	      4.24162100	    -16.14329711	    -11.36581855	     23.26015509	     -3.57255981	     -4.50406249	     24.94051837	     24.94051837	      8.89591957	    -15.28056578	      2.32044272	     -6.73315926	      3.95280039	      3.35001489	     18.83589935	    -15.12789135	     -5.89622122	     63.38164605	     45.35038494	      0.00000000	      0.00000000	      1.86894745	     -9.85212865	      6.36862926	     30.57425640	     44.77047258	      0.00000000	      0.00000000
     17.52000000	     -4.59466937	     -2.68555309	      0.60282968	      0.85313196	      0.92420556	      0.43160577	     15.23802486	     -4.83864326	     -8.71569328	     55.18278955	     55.18278955	      2.83081433	    -17.22270565	     -8.79221475	     22.68301095	     -3.34839103	     -4.63971077	     24.92992568	     24.92992568	      9.27628684	    -15.38492289	      2.09211685	     -6.96009692	      3.83951795	      3.44907183	     16.96474153	    -15.02901665	     -5.53247588	     61.22976377	     45.40382967	      0.00000000	      0.00000000	      3.28724066	    -10.23589386	      6.41554659	     31.81342945	     44.80755063	      0.00000000	      0.00000000
     17.53214286	     -4.52863881	     -2.56732186	      0.45666731	      0.85205042	      0.92451831	      0.43023539	     17.57663446	     -5.10682946	     -7.96580922	     58.93081812	     58.93081812	      2.47313857	    -17.56616584	     -3.43091606	     22.09702320	     -3.17010909	     -4.79871702	     24.85491165	     24.85491165	      9.60791018	    -15.38160137	      1.88035744	     -7.18647644	      3.76345277	      3.19739625	     15.71934073	    -14.49828046	     -5.27945590	     58.06227152	     45.49825910	      0.00000000	      0.00000000	      4.33286719	    -10.76229058	      6.75037799	     33.37096406	     44.81581042	      0.00000000	      0.00000000
     17.54428571	     -4.41874763	     -2.39705902	      0.40464228	      0.85109225	      0.92486383	      0.42873486	     19.56564788	     -5.52512490	     -7.54695298	     61.85174350	     61.85174350	      1.02968918	    -18.16035464	     -2.81747585	     21.45135507	     -2.89760123	     -4.88886685	     24.75895619	     24.75895619	     10.01418442	    -15.33009416	      1.71927862	     -7.47434219	      3.67791410	      2.76470468	     13.78392960	    -13.94750618	     -4.96091467	     56.87248422	     45.51681932	      0.00000000	      0.00000000	      5.77814612	    -11.21506887	      6.64649416	     34.10361500	     44.85461832	      0.00000000	      0.00000000
     17.55642857	     -4.40487656	     -2.35318018	      0.20439589	      0.85004587	      0.92517247	      0.42768429	     21.88623565	     -5.46597183	     -6.74656952	     64.80556728	     64.80556728	      1.75941233	    -18.03605405	      3.60230516	     20.88768321	     -2.80318204	     -4.96637508	     24.63219703	     24.63219703	     10.36309577	    -15.40955252	      1.61474932	     -7.55783023	      3.69853293	      2.65107556	     13.10041570	    -13.40027985	     -4.89494194	     51.67372332	     45.68822185	      0.00000000	      0.00000000	      6.58374238	    -11.82334336	      7.26591506	     36.39475600	     44.84438705	      0.00000000	      0.00000000
